<?xml version="1.0" standalone="no"?>
<!DOCTYPE svg PUBLIC "-//W3C//DTD SVG 20010904//EN"
 "http://www.w3.org/TR/2001/REC-SVG-20010904/DTD/svg10.dtd">
<svg version="1.0" xmlns="http://www.w3.org/2000/svg"
 width="1024.000000pt" height="1024.000000pt" viewBox="0 0 1024.000000 1024.000000"
 preserveAspectRatio="xMidYMid meet">

<g transform="translate(0.000000,1024.000000) scale(0.100000,-0.100000)"
fill="#000000" stroke="none">
<path d="M4910 8524 c-19 -2 -78 -9 -130 -15 -292 -33 -670 -162 -936 -319
-106 -62 -143 -89 -211 -152 -28 -26 -60 -48 -70 -48 -30 0 -90 56 -183 175
-93 116 -137 157 -181 168 -20 5 -29 3 -34 -11 -4 -9 -5 -182 -4 -384 l3 -367
-64 -59 c-36 -33 -85 -85 -110 -117 -25 -32 -77 -95 -117 -141 -39 -46 -93
-112 -119 -147 -26 -34 -73 -89 -104 -122 -32 -33 -61 -70 -64 -82 -6 -19 -2
-22 41 -30 26 -4 215 -8 418 -8 204 0 357 -3 340 -6 -20 -5 -15 -5 14 -3 24 2
60 4 80 4 34 0 39 4 60 48 35 72 115 164 302 346 149 146 208 195 183 154 -5
-8 -1 -8 12 2 29 22 30 24 12 17 -27 -10 -22 -1 18 30 21 15 50 27 67 28 18 0
32 6 35 15 5 13 3 13 -12 1 -9 -8 -18 -12 -21 -10 -4 5 106 89 135 103 14 7
-2 -8 -65 -60 l-30 -25 30 13 c17 7 35 20 42 29 7 9 26 22 43 29 32 13 42 33
13 24 -32 -9 80 48 147 76 141 58 382 118 435 108 14 -3 22 -1 18 5 -3 6 74 8
213 5 202 -5 229 -7 345 -36 174 -43 233 -64 390 -143 490 -244 842 -663 1004
-1193 50 -163 85 -443 85 -674 0 -130 17 -207 63 -281 11 -19 22 -43 22 -53 1
-10 16 -31 33 -47 18 -15 32 -33 32 -39 0 -15 22 -21 43 -10 11 5 17 5 17 -2
0 -5 21 -10 48 -10 34 0 43 3 32 10 -11 7 2 10 44 10 89 0 134 18 192 75 66
66 120 175 135 275 7 48 10 165 7 325 -5 240 -7 257 -42 425 -79 381 -133 524
-306 814 -121 203 -245 362 -414 532 -305 304 -615 502 -972 620 -283 94 -452
123 -734 129 -107 2 -211 1 -230 -1z"/>
<path d="M4778 7763 c7 -3 16 -2 19 1 4 3 -2 6 -13 5 -11 0 -14 -3 -6 -6z"/>
<path d="M4448 7663 c7 -3 16 -2 19 1 4 3 -2 6 -13 5 -11 0 -14 -3 -6 -6z"/>
<path d="M4405 7650 c-16 -7 -17 -9 -3 -9 9 -1 20 4 23 9 7 11 7 11 -20 0z"/>
<path d="M4340 7620 c-8 -5 -10 -10 -5 -10 6 0 17 5 25 10 8 5 11 10 5 10 -5
0 -17 -5 -25 -10z"/>
<path d="M5019 7267 c-124 -82 -67 -297 79 -297 49 0 90 31 128 96 45 77 24
173 -46 209 -44 23 -121 19 -161 -8z"/>
<path d="M4125 7063 c-55 -29 -116 -86 -138 -127 -17 -33 -22 -63 -25 -158
l-4 -117 171 -172 c94 -95 171 -176 171 -180 0 -4 46 -47 103 -95 56 -47 134
-118 172 -158 39 -39 111 -100 160 -136 117 -85 404 -375 530 -536 97 -124
492 -534 548 -569 38 -24 179 -26 222 -3 59 31 124 98 154 160 26 51 31 73 31
133 0 84 -9 102 -123 227 -106 117 -262 256 -457 408 -364 283 -554 471 -634
627 -8 17 -40 55 -70 85 -29 29 -107 114 -174 188 -167 188 -390 406 -435 425
-49 20 -163 19 -202 -2z"/>
<path d="M5825 7056 c-16 -8 -142 -123 -280 -256 -137 -133 -280 -267 -317
-297 -38 -30 -68 -58 -68 -62 0 -18 123 -166 175 -209 33 -27 95 -89 138 -136
43 -47 85 -86 92 -86 8 0 25 14 37 31 13 17 52 55 88 86 92 77 406 390 442
440 17 24 40 45 50 49 10 3 28 24 40 47 31 60 31 204 0 263 -27 53 -104 121
-151 134 -53 15 -210 12 -246 -4z"/>
<path d="M3288 6853 c6 -2 18 -2 25 0 6 3 1 5 -13 5 -14 0 -19 -2 -12 -5z"/>
<path d="M2852 6495 c-95 -21 -158 -77 -220 -193 -40 -75 -50 -132 -62 -348
-29 -494 90 -963 340 -1344 147 -223 362 -466 552 -625 34 -28 44 -41 35 -48
-9 -6 -8 -7 3 -4 18 5 106 -53 93 -62 -5 -3 7 -19 26 -36 l36 -29 -29 32 c-17
18 -27 32 -23 32 12 0 132 -92 130 -100 -1 -4 5 -7 15 -6 11 1 16 -6 16 -17
-1 -12 2 -15 10 -8 7 6 30 -2 69 -25 32 -19 62 -34 67 -34 6 0 10 -4 10 -10 0
-5 -9 -10 -20 -10 -11 0 -20 6 -20 13 0 16 -87 60 -95 47 -7 -11 50 -42 60
-32 5 4 5 1 1 -6 -5 -9 11 -21 51 -39 32 -14 60 -30 63 -34 9 -13 313 -165
345 -173 17 -4 46 -10 66 -15 19 -4 42 -12 50 -16 7 -5 22 -10 32 -10 10 -1
22 -7 26 -13 8 -13 134 -30 213 -30 26 0 71 -7 100 -15 91 -26 334 -42 393
-25 22 6 74 12 115 14 41 1 107 7 145 13 39 5 101 13 139 16 38 3 87 13 110
20 23 8 56 15 74 15 17 0 32 5 32 10 0 6 6 10 14 10 7 0 40 11 72 25 90 39
107 48 129 65 11 9 39 23 63 30 27 9 41 18 38 26 -4 10 1 11 20 4 15 -6 23 -6
19 -1 -3 5 10 15 30 22 23 9 31 16 22 21 -8 5 -5 8 9 8 23 0 58 32 47 43 -3 4
-1 7 5 7 7 0 12 -5 12 -12 0 -7 6 -5 18 4 9 9 33 18 53 22 44 8 87 28 115 55
37 34 96 58 184 74 47 9 92 18 101 22 34 13 47 -27 59 -189 8 -108 11 -122 32
-138 26 -21 122 -23 138 -3 14 17 37 129 45 220 4 44 10 186 14 315 5 180 9
234 19 233 7 -2 12 7 12 20 0 13 9 32 20 42 20 18 21 18 15 -1 -4 -14 -2 -13
6 4 7 12 16 22 21 22 4 0 8 9 8 20 0 11 6 20 14 20 8 0 16 10 20 23 7 29 85
117 86 97 0 -13 1 -13 10 0 5 8 10 11 10 6 0 -12 29 26 30 38 0 5 -10 1 -22
-10 l-22 -19 22 30 c86 116 212 293 240 336 23 38 30 55 22 63 -18 18 -641 20
-786 3 l-119 -14 -215 -215 c-165 -164 -244 -234 -340 -303 -284 -202 -574
-309 -908 -334 -304 -24 -594 39 -910 195 -169 83 -291 175 -456 340 -315 316
-476 602 -556 986 -31 150 -41 277 -38 483 l3 190 -27 45 c-32 55 -116 136
-161 155 -52 21 -118 25 -185 10z m3393 -2835 c-3 -5 -12 -10 -18 -10 -7 0 -6
4 3 10 19 12 23 12 15 0z m-35 -14 c0 -2 -7 -7 -16 -10 -8 -3 -12 -2 -9 4 6
10 25 14 25 6z m-640 -236 c-8 -5 -26 -9 -40 -9 -23 1 -23 2 5 9 43 11 52 11
35 0z m-801 -26 c9 -8 -65 -2 -84 6 -13 6 -2 7 30 3 28 -3 52 -7 54 -9z m724
9 c-7 -2 -19 -2 -25 0 -7 3 -2 5 12 5 14 0 19 -2 13 -5z m-66 -9 c-3 -3 -12
-4 -19 -1 -8 3 -5 6 6 6 11 1 17 -2 13 -5z m-587 -12 c0 -5 -13 -7 -30 -4 -16
2 -30 6 -30 8 0 2 14 4 30 4 17 0 30 -4 30 -8z m518 1 c-10 -2 -28 -2 -40 0
-13 2 -5 4 17 4 22 1 32 -1 23 -4z m-410 -10 c-15 -2 -42 -2 -60 0 -18 2 -6 4
27 4 33 0 48 -2 33 -4z m325 0 c-13 -2 -35 -2 -50 0 -16 2 -5 4 22 4 28 0 40
-2 28 -4z m-155 -10 c-16 -2 -40 -2 -55 0 -16 2 -3 4 27 4 30 0 43 -2 28 -4z"/>
<path d="M3785 6081 c-48 -12 -75 -30 -95 -64 -37 -60 -18 -170 36 -218 28
-24 90 -41 124 -34 37 8 82 59 105 119 15 40 16 52 5 91 -12 44 -66 105 -93
105 -7 0 -21 2 -32 4 -11 3 -33 1 -50 -3z"/>
<path d="M6315 6076 c-105 -46 -123 -180 -35 -268 33 -33 44 -38 85 -38 31 0
56 7 75 20 36 25 80 113 80 158 0 106 -105 172 -205 128z"/>
<path d="M4449 5695 c-155 -142 -441 -436 -473 -487 -27 -43 -18 -168 19 -243
48 -99 163 -175 265 -175 104 0 102 -2 419 313 163 162 306 297 318 301 22 7
19 12 -49 93 -40 47 -97 105 -127 130 -31 24 -93 80 -137 124 -45 43 -83 79
-85 78 -2 0 -70 -61 -150 -134z"/>
<path d="M7278 5313 c7 -3 16 -2 19 1 4 3 -2 6 -13 5 -11 0 -14 -3 -6 -6z"/>
<path d="M5025 4877 c-54 -30 -77 -77 -72 -145 6 -84 72 -152 148 -152 66 0
149 94 149 170 0 42 -33 104 -69 129 -39 28 -104 27 -156 -2z"/>
<path d="M7235 4480 c-3 -5 -1 -10 4 -10 6 0 11 5 11 10 0 6 -2 10 -4 10 -3 0
-8 -4 -11 -10z"/>
<path d="M7210 4449 c0 -5 5 -7 10 -4 6 3 10 8 10 11 0 2 -4 4 -10 4 -5 0 -10
-5 -10 -11z"/>
<path d="M3540 3901 c0 -6 4 -13 10 -16 6 -3 7 1 4 9 -7 18 -14 21 -14 7z"/>
<path d="M2540 2823 c-41 -8 -44 -19 -15 -71 40 -74 120 -170 254 -307 l119
-121 -47 -50 c-112 -121 -279 -310 -314 -356 -29 -39 -36 -57 -33 -82 8 -66 9
-66 117 -66 107 0 106 -1 152 67 65 95 206 250 236 261 9 3 191 -200 247 -277
l39 -53 118 5 c65 2 123 9 128 14 16 16 -9 56 -103 175 -73 92 -218 256 -295
331 l-28 29 30 35 c16 19 48 54 70 77 22 24 60 67 85 96 25 28 56 64 70 78 14
15 32 37 41 50 9 12 42 50 74 83 34 35 54 64 49 69 -5 5 -65 10 -133 12 l-124
3 -136 -148 -136 -149 -25 29 c-14 16 -51 61 -84 99 -32 38 -81 93 -108 122
l-49 52 -87 -1 c-48 -1 -98 -4 -112 -6z"/>
<path d="M5166 2821 c-19 -4 -37 -18 -49 -39 -22 -38 -137 -287 -238 -514 -38
-87 -100 -230 -139 -317 -38 -87 -70 -164 -70 -170 0 -7 40 -11 126 -11 120 0
126 1 131 21 4 12 25 61 48 109 l43 87 77 6 c43 4 132 7 199 7 l121 0 49 -115
49 -115 124 0 c67 0 123 2 123 5 0 3 -10 25 -21 48 -12 23 -41 87 -64 142 -24
55 -80 183 -125 285 -45 102 -111 257 -147 344 -35 88 -73 177 -84 198 -19 37
-21 38 -72 37 -28 -1 -65 -4 -81 -8z m64 -403 c0 -6 18 -56 40 -110 22 -55 40
-103 40 -107 0 -3 -45 -5 -101 -3 l-101 3 7 27 c11 48 96 213 105 207 6 -4 10
-11 10 -17z"/>
<path d="M5929 2822 l-116 -3 -7 -93 c-3 -52 -3 -101 0 -110 5 -14 27 -16 158
-16 l151 0 -3 -399 c-2 -354 -1 -401 13 -415 12 -12 36 -16 93 -16 96 0 119 6
126 34 3 12 6 197 6 411 l2 390 133 -3 134 -4 6 34 c3 18 5 69 3 113 l-3 80
-290 0 c-159 0 -342 -1 -406 -3z"/>
<path d="M6861 2314 c0 -375 4 -516 12 -528 10 -13 61 -15 364 -17 194 -1 355
0 357 2 3 2 6 52 7 109 l2 105 -252 3 -251 2 0 108 0 107 209 -3 209 -4 7 86
c4 47 5 92 1 101 -5 13 -36 15 -216 15 l-210 0 0 105 0 105 244 0 c213 0 245
2 250 16 3 9 6 58 6 110 l0 94 -370 -1 -370 -2 1 -513z"/>
<path d="M3725 2678 c-3 -79 -4 -278 -1 -443 3 -165 5 -337 6 -382 l0 -83 110
0 c98 0 110 2 120 19 5 11 10 86 10 170 l0 151 34 0 c19 0 41 3 49 6 15 6 61
-56 187 -253 l59 -93 136 0 c101 0 135 3 135 13 0 6 -23 41 -51 77 -57 72
-189 268 -189 280 0 4 27 26 59 49 33 23 63 51 66 64 4 12 20 42 35 67 41 65
50 109 39 186 -18 126 -82 215 -196 271 l-77 38 -262 3 -262 3 -7 -143z m481
-94 c79 -38 106 -118 66 -194 -29 -52 -70 -68 -197 -76 l-110 -7 3 147 3 146
101 0 c71 0 110 -5 134 -16z"/>
</g>
</svg>
